<?xml version="1.0" encoding="UTF-8"?>
<svg class="artwork-1adZW0" preserveAspectRatio="xMinYMin slice" fill="none" viewBox="0 0 1440 900"
    xmlns="http://www.w3.org/2000/svg">
    <linearGradient id="a" gradientUnits="userSpaceOnUse" x1="139.71" x2="139.71" y1="779.4" y2="892.29">
        <stop offset="0" stop-color="#29cc7a" />
        <stop offset="1" stop-color="#038567" />
    </linearGradient>
    <linearGradient id="b" gradientUnits="userSpaceOnUse" x1="1060.28" x2="1093.87" y1="793.1" y2="826.68" />
    <linearGradient id="c" gradientUnits="userSpaceOnUse" x1="111965" x2="111392" y1="70137.8" y2="67170.1" />
    <linearGradient id="d" gradientUnits="userSpaceOnUse" x1="1040.7" x2="996.43" y1="784.19" y2="826.49">
        <stop offset="0" stop-color="#d11583" />
        <stop offset="1" stop-color="#eb50a4" />
    </linearGradient>
    <linearGradient id="e" gradientUnits="userSpaceOnUse" x1="1348.25" x2="1333.31" y1="108.699" y2="70.388">
        <stop offset="0" stop-color="#66bcff" />
        <stop offset="1" stop-color="#8cd9ff" />
    </linearGradient>
    <linearGradient id="f" gradientUnits="userSpaceOnUse" x1="899.19" x2="845.378" y1="154.445" y2="120.344">
        <stop offset="0" stop-color="#ffc619" />
        <stop offset="1" stop-color="#ffe75c" />
    </linearGradient>
    <path d="M1570-21H-130v1200h1700z" fill="#5865f2" />
    <path
        d="M805.8 365.9c-2.1 0-4.2.2-6.3.3a126.608 126.608 0 00-78.075-62.122A126.598 126.598 0 00622.6 317.8a126.305 126.305 0 00-128.276-48.74A126.303 126.303 0 00397.3 366.1a64.763 64.763 0 00-8.6-5.8c-34.2-19.9-78.7-7-99.3 28.6-18.4 31.7-11.6 70.9 14.4 93.1-14.2 9.1-23.3 23-23.3 38.6 0 27.4 28 49.6 62.7 49.6a74.707 74.707 0 0034.9-8.4A126.402 126.402 0 00616 529.7a126.2 126.2 0 00166.8-20.2 73.596 73.596 0 0088.642-36.396A73.607 73.607 0 00879.5 439.6a73.704 73.704 0 00-21.586-52.114A73.704 73.704 0 00805.8 365.9z"
        fill="#6270fc" />
    <path
        d="M1088.9 338.8A65.414 65.414 0 001051 351a73.69 73.69 0 00-82.74-39.202 73.706 73.706 0 00-57.061 71.602c.01 4.323.378 8.638 1.1 12.9-32.9 15-64.1 40.2-87.4 72.8H1088.9c16.84-.66 32.76-7.812 44.44-19.958s18.21-28.342 18.21-45.192-6.53-33.046-18.21-45.192-27.6-19.298-44.44-19.958z"
        fill="#6270fc" />
    <path
        d="M985.092 596.4a115.895 115.895 0 0023.768-45.159 115.856 115.856 0 002.07-50.991 115.88 115.88 0 00-58.277-80.721A115.903 115.903 0 00786.092 487.3a117.704 117.704 0 00-121.546-4.368A117.7 117.7 0 10790.392 681.4a76 76 0 00137.2-.7 51.034 51.034 0 0018.318 7.794 51.011 51.011 0 0052.582-21.194 50.986 50.986 0 007.988-38.225 51.163 51.163 0 00-7.447-18.464 51.007 51.007 0 00-13.941-14.211z"
        fill="#707cff" />
    <path
        d="M860 222.1H449.401a2.996 2.996 0 01-2.791-1.746 3.002 3.002 0 01.49-3.254c24.6-29.4 61.4-30.9 101.2-23.2 22.4-86.3 123-85.3 157.3-32.2 36.6-28.2 159-31.3 160.2 54.5a5.799 5.799 0 01-5.8 5.9z"
        fill="#6a77fc" />
    <path
        d="M-72.1 509.5C17.1 464.4 80 499.3 80 499.3c44.1-13.7 83-4.1 103 11.6 12.5 9.7-15.5 8-78.3 8H-69.8a5.003 5.003 0 01-5-5 4.898 4.898 0 012.7-4.4zM1395.8 803.6a34.75 34.75 0 00-8.32-21.746 34.723 34.723 0 00-20.19-11.591 34.703 34.703 0 00-38.39 21.237 33.263 33.263 0 00-7.8-.9 36.297 36.297 0 00-27.8 13z"
        fill="#6874f7" />
    <path
        d="M154.3 385.3c-4.7-22.1-2.4-28.1-18-48.9-5-6.7-27.8-5.3-38-3.4-12.1 2.7-25.3 19.1-25.3 19.1 10.4 56.3 18.9 50.5 22.2 69s-.1 26.3 20.9 26.3 35.7-9 28.8-27.1c11.6-3.7 13.8-14.1 9.4-35zM-3.5 307.4c-4.4 48 12 45.7 60.4 26.9z"
        fill="#4452f2" />
    <path
        d="M236.5 349.5l-43.2 32c2.3 1.3 3.6 1.4 6.1 0s8.2-8 10.6-9.8 9-5.5 12.4-7.4a54.995 54.995 0 0011.1-8.4c2.7-3 3.7-4 3-6.4z"
        fill="#000" />
    <path d="M84.3 163.1a97.898 97.898 0 00-96.717 83.348A97.898 97.898 0 00-8.4 292.2l92.7 66.6a97.9 97.9 0 000-195.7z"
        fill="#eb459f" />
    <path
        d="M112.3 270.3c-9.1-4-9.4-3.9-15.1-11.7-5.7-7.8-12-11-19-11l15.4 60.7c18.6 2.7 28.7-7.9 30.1-17.2s-2.3-16.8-11.4-20.8z"
        fill="#0c1aad" />
    <path
        d="M104.7 279.6c-3.3-9.7-11-20.5-19.2-28.4a26.7 26.7 0 01-8.2-22.4l1.6-14.2a42.6 42.6 0 00-19.1-40.7 43.512 43.512 0 00-9.7-4.7 42.203 42.203 0 00-16.7-2 42.702 42.702 0 00-39.5 42.6c0 1.804.1 3.607.3 5.4l.7 5.8 3.2 24.8a72.5 72.5 0 01-3.5 33.3 58.006 58.006 0 00-3 13.1l75.5 62.1a58.292 58.292 0 0034.588-29.403A58.302 58.302 0 00104.7 279.6z"
        fill="#0c1aad" />
    <path d="M67.1 354.3a58.292 58.292 0 0034.587-29.403A58.3 58.3 0 00104.7 279.6c-3.3-9.7-11-20.5-19.2-28.4"
        stroke="#000" stroke-linecap="round" stroke-miterlimit="10" stroke-width="2.201" />
    <path d="M83.4 284.8c5.2-11.4 7.9-10.4 19.6-9 9.3 1.1 21.9 18.2 9 29.5s-42.2 9.7-28.6-20.5z" fill="#0c1aad" />
    <path d="M46.4 259.3a3 3 0 100-6 3 3 0 000 6zM64 258a3 3 0 100-6 3 3 0 000 6z" fill="#000" />
    <path d="M64 255c16.1 10 10.9 19.6 24.9 35.8" stroke="#fff" stroke-linecap="round" stroke-miterlimit="10"
        stroke-width="2.7" />
    <path d="M50.3 284.5c8.4-7.7 10.9-9.8 14.3-10.1s9.2-.5 9.2-.5l1.6 36.7-22.8 2.6z" fill="#ffc619" />
    <path
        d="M93.5 269a3.3 3.3 0 00-3.4-4H74.6a4.8 4.8 0 00-4.7 4l-5.2 32.9a3.4 3.4 0 003.5 4h15.5a5.003 5.003 0 004.7-4z"
        fill="#000" />
    <path d="M92.5 265.9l1.8 1.7-4.5 1.1z" fill="#000" />
    <path d="M102.2 285.9c-2.2-2.9-4.5-6.7-9.8-6.7v6.7z" fill="#ffc619" />
    <path
        d="M95.2 270.6a3.399 3.399 0 00-3.5-4H76.2a5.003 5.003 0 00-4.7 4l-5.1 32.8a3.3 3.3 0 003.4 4h15.5a4.804 4.804 0 004.7-4z"
        fill="#fff" />
    <path
        d="M91.9 283.8h6.3a4.9 4.9 0 014.9 4.8 4.905 4.905 0 01-1.363 3.595A4.903 4.903 0 0198.2 293.7h-4.6a6.497 6.497 0 01-6.3-5c-.4-2.7 1.6-4.9 4.6-4.9z"
        fill="#ffc619" />
    <path
        d="M90.8 293.4h4.4a4.907 4.907 0 013.759 1.776A4.902 4.902 0 01100 299.2a4.8 4.8 0 01-4.8 4h-2.7a6.503 6.503 0 01-6.3-4.9c-.4-2.7 1.6-4.9 4.6-4.9zM79.2 304.9H64v6.04h15.2zM80.1 286.3h-9.5a2.298 2.298 0 01-2.2-1.4l-1.1-2.4-1.2-4.9-3.3 18.5h15.6a6.503 6.503 0 006.3-4.9c.4-2.7-1.6-4.9-4.6-4.9z"
        fill="#ffc619" />
    <path d="M78.1 296.1H62.8l1.9 9.9h11.7c2.9 0 5.8-2.2 6.2-4.9s-1.5-5-4.5-5z" fill="#ffc619" />
    <path
        d="M190.7 341.9c-1.1-14.9-13.8-15.5-22.8-19.6s-20.1-13.6-31.3-19.7-20.2-4.4-37.1 3.4l24.2 36c12.1 4.2 15.2 10.1 22.3 17.9s15.5 9.8 23.6 7.2c5 6.3 6 7.8 11.9 4.8s15.8-9.3 17.7-17.7-2.4-9.4-8.5-12.3z"
        fill="#66bcff" />
    <path
        d="M183.1 367h-.1c-5.3-.6-7.8-3.2-11.6-7.2-.9-1.1-2-2.2-3.3-3.5-14.6-.9-21.3-7.7-25.1-12.7-1.7-2.4-4.7-4-7.6-5.7s-5.6-3.2-7.5-5.5a29.727 29.727 0 01-3.6-5.4c-1.5-2.6-2.6-4.5-4.5-4.7s-4.8 1.2-7.6 2.9a37.17 37.17 0 01-8 3.9.896.896 0 01-1.1-.6.798.798 0 01.271-.962.812.812 0 01.329-.138 34.833 34.833 0 007.5-3.7c3.1-1.9 5.8-3.5 8.8-3.2s4.2 2.8 5.8 5.6a56.963 56.963 0 003.4 5.2c1.7 2 4.4 3.5 7.1 5.1s6.2 3.5 8.2 6.1c3.8 5.2 10.1 11.3 24.1 12h.3l.3.2 3.5 3.7c3.6 3.9 5.8 6.2 10.5 6.7a.89.89 0 01.609.333.893.893 0 01.191.667 1.103 1.103 0 01-.9.9z"
        fill="#45aaf7" />
    <path d="M120.4 319.3a83.56 83.56 0 00-1.5 18.6" stroke="#000" stroke-linecap="round" stroke-miterlimit="10"
        stroke-width="2.201" />
    <path
        d="M136.6 389.7c-11.4 13.1-22.5 11.5-27.5 11.6s-4.9-3.5-5.7-6.4-1.5-7.6-1.5-7.6c-12.7 1-15.2-7.3-16.3-14.9-.8-5.8-3.2-8.4-4.7-13.6a97.798 97.798 0 01-77.4-42.5l12.2-11.4L47 319.6c19-10 29.6-15.3 40.1-17.6s21.6.4 26.6 14.6 6 18.8 10 25.4l4.4 6.4c4.8 7.3 10.1 17.7 3.5 30.9a70.801 70.801 0 005 10.4z"
        fill="#8cd9ff" />
    <path d="M28.1 341c-1.6-9.7 1.5-17.1 8.1-19.2l-18.5-9.3-11.7 7A95.99 95.99 0 0028.1 341z" fill="#000" />
    <path
        d="M112.8 395.8V394c-2.5-.1-2.9-1.9-4.5-10.3l-.2-1.1h-.7c-5.7-.6-9.8-3.3-11.3-14.5a37.696 37.696 0 00-4.9-15 33.988 33.988 0 01-1.6-3.4c-.4-1.1-.9-2.1-1.3-3.1a22.2 22.2 0 01-2.7-12c.1-4.4-.5-6.6-2.1-7.6s-4.8-.3-9.8 2.1l-.7.3c-7.8 3.8-23.5 11.3-39.9 15l2.3 1.4c15.8-3.9 30.8-11.1 38.4-14.8l.7-.3c3.9-1.9 6.8-3 8.1-2.2s1.3 2.5 1.2 6a25.799 25.799 0 002.8 12.9c.5 1 .9 1.9 1.3 2.9a31.436 31.436 0 001.8 3.7c1.6 2.9 3.5 6.5 4.6 14.4 1.4 10.2 5 14.9 12.2 15.9 1.6 8.2 2.2 11.3 6.3 11.5z"
        fill="#66bcff" />
    <path
        d="M50.3 282.5c-4.3-2.9-7.4-2.2-12 .5-5.7-3.8-12.4-3.6-19.1-.2-4.9 2.4-16.9 7.8-22.9 10.5a2.095 2.095 0 01-2.086-.261A2.108 2.108 0 01-6.6 291.1l2.8-17.2c-13.5 13.1-15.8 37.3-9.7 49.5 6.1 12.2 26.6 9.1 32.7 4.7s8.2-6 15.8-5.6 13.6.4 22.5-8.4l5.6-2.8c.9-12.9-2.1-21.6-12.8-28.8z"
        fill="#0c1aad" />
    <path
        d="M50.3 282.5c-4.3-2.9-7.4-2.2-12 .5-5.7-3.8-12.4-3.6-19.1-.2-4.9 2.4-16.9 7.8-22.9 10.5M39.3 283.5c12.5 7.7 16.1 17.7 17.6 24.4"
        stroke="#000" stroke-linecap="round" stroke-miterlimit="10" stroke-width="2.201" />
    <path
        d="M125.6 237.2h-17.1a.802.802 0 00-.8.7l-2.2 13.9a.799.799 0 001.3.8l19.3-13.9a.796.796 0 00.393-.964.802.802 0 00-.893-.536z"
        fill="#fff" />
    <path
        d="M164.9 241.9c10.4 0 20.3-8.4 21.9-18.7v-.5c1.7-10.2-5.6-18.7-16-18.7H113c-10.4 0-20.3 8.5-21.9 18.7v.5c-1.7 10.3 5.5 18.7 16 18.7z"
        fill="#fff" />
    <path
        d="M110.3 230.8a9.495 9.495 0 009-7.7v-.2a6.401 6.401 0 00-6.6-7.7 9.403 9.403 0 00-9 7.7v.2a6.509 6.509 0 001.453 5.434 6.506 6.506 0 005.147 2.266z"
        fill="#8cd9ff" />
    <path
        d="M137.7 230.8a9.6 9.6 0 009-7.7v-.2a6.509 6.509 0 00-1.453-5.434 6.491 6.491 0 00-2.316-1.718 6.485 6.485 0 00-2.831-.548 9.4 9.4 0 00-9 7.7v.2a6.505 6.505 0 003.768 7.152c.891.393 1.859.58 2.832.548z"
        fill="#66bcff" />
    <path
        d="M165 230.8a9.395 9.395 0 009-7.7v-.2a6.509 6.509 0 00-1.452-5.434 6.5 6.5 0 00-5.148-2.266 9.395 9.395 0 00-9 7.7v.2a6.5 6.5 0 006.5 7.7z"
        fill="#8cd9ff" />
    <path
        d="M79.8 273.1a1.499 1.499 0 00-1.4-1.7H77a1.9 1.9 0 00-1.7 1.4l-.7 4.7a1.496 1.496 0 00.807 1.54c.184.094.386.148.593.16h1.4a1.698 1.698 0 001.6-1.4z"
        fill="#29cc7a" />
    <path
        d="M54.6 249.7A16.497 16.497 0 0165 240c.2 0 .3-.2.2-.4-2.5-6.4-2-10.3-.2-15.4 0-.2-.1-.4-.3-.4-8.1-2.2-11.7-7.2-12.9-11.3a.402.402 0 00-.553-.151.402.402 0 00-.147.151c-2.7 7.3-7.3 8.2-11.4 8.3a.3.3 0 00-.3.5c4.8 7.1 2.7 13-.9 17.4a.319.319 0 00-.2.4.317.317 0 00.4.2c8 .2 12.7 4.7 15.3 10.4a.298.298 0 00.3.3.301.301 0 00.3-.3z"
        fill="#ffc619" />
    <g stroke="#000" stroke-linecap="round" stroke-miterlimit="10" stroke-width="2.201">
        <path
            d="M78.1 296.1H70M92.4 293.7h4.5M51.4 212.3c2.7-8.3 1.8-13.6.6-16.5M64.1 224.2c5.5-.3 8.9-2.1 11.8-5.2M54.6 249.7c.123 1.03.123 2.071 0 3.1M39.1 238.7c-4.7 4.4-12.5 4.9-18.1 4M39.7 220.8c-2.4-3.7-6.5-7.7-10-8.9M65.2 239.6a29.708 29.708 0 005.9 1.3" />
    </g>
    <path d="M48.7 226.8c3.5 8.8 6.5 7.9 7.5 5s1.7-6.6 4-6.6 2 3.8 0 9.7-6.1 7.8-10.7 3.6-5.2-9-5.7-12.3 2.9-4.5 4.9.6z"
        fill="#c40655" />
    <path d="M46.4 256.3c3.8 18.8-5 29.2-5.8 48.6" stroke="#fff" stroke-linecap="round" stroke-miterlimit="10"
        stroke-width="2.7" />
    <path d="M79.9 357.5a46.4 46.4 0 01-.8-34.9M76.1 339c-2.9-3.7-3.3-9.5-3.3-9.5M1.5 291l-9.9 4.7M104.5 275.5l5.7.9"
        stroke="#000" stroke-linecap="round" stroke-miterlimit="10" stroke-width="2.201" />
    <path
        d="M236.6 349.3a23.264 23.264 0 01-2.3 3.5c-4 5-13.5 11.4-18.7 14.2s-6.7 4-10.4 7.8-8.1 8.8-11.9 6.7-9.7-7.5-13.4-11.4a1.703 1.703 0 01-.4-1.7c1.4-5.8 6.7-14.5 15.2-19.9a1.898 1.898 0 011.8 0c5.7 3 9 3.5 13.3 2.8 6.4-.9 12.3-4.7 18.8-7.6s7.1.2 8 5.6z"
        fill="#d11583" />
    <path
        d="M184.4 374.5a71.465 71.465 0 008.9 7c3.8 2.1 8.3-2.9 11.9-6.7s5.2-4.9 10.4-7.8 14.7-9.2 18.7-14.2a23.237 23.237 0 002.3-3.5c-.9-5.4-2.5-8-8-5.6s-8.4 4.3-12.6 5.9a7.006 7.006 0 00-4.3 5.9c-.1 1.5-.1 3.1-.1 4.9-7.7-.4-14.6 3-15.1 13 0 0-6.8-2.5-12.1 1.1z"
        fill="#fa80ba" />
    <path
        d="M234.3 352.8a31.487 31.487 0 002.2-3.3 1.205 1.205 0 00.2-1 7.692 7.692 0 00-1.1-3c-.9 2.3-2.5 4.6-6.5 8.4-6.3 5.9-13.7 8.7-18.1 11a30.996 30.996 0 00-10.3 8.5 20.901 20.901 0 01-9 7.1l1.6 1c3.8 2.1 8.3-2.9 11.9-6.7s5.2-4.9 10.4-7.8 14.7-9.2 18.7-14.2z"
        fill="#ffe75c" />
    <path
        d="M150.6 370.8c-7.3-.9-14.1 3.4-19.2 16.3-1.9-1.1-6.5-2-13.1.2s-8.6 5.3-9.5 7.8a6.09 6.09 0 000 4.2c.5 1.6 1.3 3.9 2.6 7.7 2 5.8 1.8 11.1 5.3 11.2l42.8-39.9s.5-6.3-8.9-7.5z"
        fill="#d11583" />
    <path
        d="M150.6 370.8c-7.3-.9-14.1 3.4-19.2 16.3-.6 1.6-1.2 3.6-1.8 5.8-7.3.4-10.4 4-10.8 11.2 0 0-5.3-2.5-7.8 1.7.1.4.3.8.4 1.2 2 5.8 1.8 11.1 5.3 11.2l42.8-39.9s.5-6.3-8.9-7.5z"
        fill="#fa80ba" />
    <path
        d="M159.1 376.3l-3.8-2.6c-6-.2-11 .3-15.6 7s-7.3 13.6-12.4 18.3c-7.3 6.9-13.6 10.2-14.2 14.6.7 2.7 1.5 4.5 3.6 4.6l42.8-39.9a6.539 6.539 0 00-.4-2z"
        fill="#ffe75c" />
    <path
        d="M152.6 371.9l3.5.5a1.906 1.906 0 011.5.8c1.6 1.7 2.2 4.4 2.2 7l-12.4-.5c3.9-2.5 5-4.6 4.4-6.8a.697.697 0 01.075-.761.69.69 0 01.327-.227.692.692 0 01.398-.012z"
        fill="#d11583" />
    <path
        d="M116.9 418.2c12.1.7 17-3.7 21.5-9.7a36.492 36.492 0 016.7-6.9c6.6-5.1 11.7-10.1 14.7-17.4 3.8-9.2-9-10-15.8-2.8s-6.4 14.6-20.2 25.8c-9.4 7.7-10.5 10.8-6.9 11z"
        fill="#000" />
    <path
        d="M114.354 398.858c.883-.036 1.554-1.183 1.498-2.563-.055-1.379-.816-2.469-1.699-2.433-.883.035-1.553 1.182-1.498 2.562.055 1.379.816 2.469 1.699 2.434z"
        fill="#fff" />
    <path
        d="M236.9 347.6a14.7 14.7 0 00-1.9-3.8.204.204 0 00-.024-.156c-.028-.047-.073-.081-.126-.094a.207.207 0 00-.25.15h-.2a.389.389 0 00-.161.17.39.39 0 00-.039.23c1 2.8 1.6 6 .4 8.2 2.9-2.9 2.3-4.2 2.3-4.7z"
        fill="#d11583" />
    <path
        d="M188.824 369.539c1.26-.412 1.78-2.278 1.163-4.168-.618-1.89-2.14-3.088-3.4-2.676s-1.781 2.277-1.163 4.167 2.14 3.088 3.4 2.677z"
        fill="#fff" />
    <path
        d="M160.1 1013.3a76.203 76.203 0 01-75-62.7c-6-33.7-12-60.4-20.5-82.8l140-51.3c6.6 22.6 16.7 52.1 29.3 102 12.1 48.1-24.2 94.8-73.8 94.8z"
        fill="#4452f2" />
    <path
        d="M358.9 710.9c-4.7-6-6.7-5-10.2-5 0-5.9-2.8-6.4-4.1-1.5s-2.1 7.2 1.1 11.9 7.5 11.6 9.4 19.8a136.158 136.158 0 00-13.4 4.4l7.8 18.1c13-5.8 20.6-10.8 21.4-21.2s-7.2-20.4-12-26.5z"
        fill="#ffc619" />
    <path
        d="M220.2 686.9c10.4.1 18.2.5 29.2 4a18.2 18.2 0 0112.8 17.5v40h-4l-2.1-3.3v-31.5a16.2 16.2 0 00-12.3-15.8 125.28 125.28 0 00-19.9-3.1l-5-7.7z"
        fill="#bde9ff" />
    <path
        d="M265 781.7a7.696 7.696 0 01-7.114-4.753A7.7 7.7 0 01257.3 774v-40.3a7.702 7.702 0 017.7-7.7 9.7 9.7 0 019.7 9.7V772a9.708 9.708 0 01-2.841 6.859A9.707 9.707 0 01265 781.7z"
        fill="#000" />
    <path
        d="M141.2 897.9c62.243 0 112.7-50.457 112.7-112.7 0-62.242-50.457-112.7-112.7-112.7-62.242 0-112.7 50.458-112.7 112.7 0 62.243 50.457 112.7 112.7 112.7z"
        fill="#0c1aad" />
    <path d="M33.8 751a112.798 112.798 0 0049.5 130.9 80.897 80.897 0 0012.943-79.704A80.898 80.898 0 0033.8 751z"
        fill="#039c78" />
    <path
        d="M49.8 764.6c-7.4-2.8-8.5-4.1-10.3-7.6s-2.8-2.8-6.5-3.3c-.3 1-.6 1.9-.8 2.9 14.8 9.7 18.9 30.7 18.9 30.7l6.2-2.9s0-17.1-7.5-19.8z"
        fill="#fa94c4" />
    <path d="M30.3 805.5a112.699 112.699 0 00218.8 11.9L130.7 768c-26.8-7.4-73.4-10.1-100.4 37.5z"
        fill="url(#a)" />
    <path d="M217.9 866.4c-23.2 0-65.4 4.5-90.1-23.4 17.9 20.2 26.3 35.4 26.9 54a112.302 112.302 0 0063.1-29.3z"
        fill="#000" />
    <path
        d="M45.8 785.2c13.9-13.7 53.3-23.4 85.4 0l12.4-13.1c-1-21.6-5.8-22.9-12.4-16s-8 .7-14.5-11-14.7-13.9-20.6-1.9c-5.9 12-4.6 12.4-9.5 10.7s-14-6.1-21.6-7.2-11.2 9.7-10.5 17.9-1.4 7.9-5.3 6.3-4.9 3.4-3.4 14.3z"
        fill="#fa80ba" />
    <path d="M104.4 769.9a113.058 113.058 0 00.7-30M62 751c5.8 12 6.8 18 6.8 18" stroke="#ff5cb4" stroke-linecap="round"
        stroke-miterlimit="10" stroke-width="2.289" />
    <path
        d="M368.5 785.2c3.4-11 4.4-11.2-18.2-10.3-20.8.8-47.1 1.6-71.2 3.4-1.2-14.6-5.9-20.4-11.2-28 2-24.1-2.4-47.5-26.3-53.2s-59.1-6.9-82.5 1.8-16.8 42.2-14.3 64.9c0 0-20.7 6.7-28.5 27.2-6.5 17.3-3.4 37.9 15.1 55.7 29.7 28.6 59.6 31.7 87.9 28.4 22-2.7 33.1-19.5 36.2-35.8 40.3 15.1 65.9-7.6 74.8-18.5 10.5-12.6 25.4-16.7 34.4-20.6s12.8-7.4 3.8-15z"
        fill="#2ad17d" />
    <path d="M172 660.8c-8.5-.5-17.5 5.1-11.5 21.2-9.2-.9-18.4 4.2-11.9 19.3l42.3-14.4c-3.7-18.6-10.4-25.5-18.9-26.1z"
        fill="#fa80ba" />
    <path
        d="M170.1 739.1c0-10.328-8.372-18.7-18.7-18.7s-18.7 8.372-18.7 18.7v29.49c0 10.328 8.372 18.7 18.7 18.7s18.7-8.372 18.7-18.7z"
        fill="#000" />
    <path
        d="M225.6 688.2v6c-17.6-2.3-39.4-2.5-57.3 1.9a16.404 16.404 0 00-12.3 15.8v34.8h-21.8v-36.2a22 22 0 0118.3-21.7c32.4-5.7 54.9-3.5 73.1-.6z"
        fill="#fff" />
    <path
        d="M191.9 685.3c-10.4 0-18.2.5-29.2 3.9a18.396 18.396 0 00-12.8 17.5v40h4l2.1-3.2v-31.6a16.404 16.404 0 0112.3-15.8 125.444 125.444 0 0119.9-3l5-7.8z"
        fill="#bde9ff" />
    <path
        d="M286.6 783.3c-24.4 1.2-51.4 2.8-61.2 3.2s-15.6.7-17.3 5.4 11.7 5.4 28.6 6.5 55 .9 77 0a485.645 485.645 0 0048.6-4.1c10.3-1.5.5-8.3.5-8.3s3.9-6.2-1.7-6.9-74.5 4.2-74.5 4.2z"
        fill="#039c78" />
    <path
        d="M261.1 792.6c1-14.6 6.6-15.4 9-11.5a26.51 26.51 0 013.4 7.8 3.798 3.798 0 013.6 0 4.503 4.503 0 012.3 3.7zM227.8 791.3c3.5-10.1 10.7-8.2 15.7-5.9a7.902 7.902 0 014.9 6.9zM216.7 790.9c2.7-10.4 5.5-9.7 6.4-5.7s1.2 6.1 1.2 6.1z"
        fill="#fff" />
    <path
        d="M358.2 787.6c-14.6 2.3-41.1 4.6-75.1 5-.9-8.4 1.7-15.7 12-23.7 4.5-3.5 4.1-6.1 3.7-8.4-1.3-8.3-4.5-16.6-9.3-27.3-7.3-16.5-8.2-30.1 3.9-37.5s26-3.2 35.3 10.5 29.8 43.8 29.5 81.4z"
        fill="#ffc619" />
    <path d="M317.4 713.6c9 8.5 12.4 7.5 14.4 7s.3-5.6-.8-7.9z" fill="#ffae00" />
    <path
        d="M338.2 790c5.9-11 9-14.1 12.6-12.9s3.3 11.1 3.3 11.1zM317.9 791.5c4.8-16.4 10.7-14.3 12.7-11.6s4 10.4 4 10.4zM302.7 725.5c.7 4.1-.7 7.5-2.8 8s-4.1-1.6-5.3-4.8-.8-8.4 1.4-9.8 5.8 1.6 6.7 6.6z"
        fill="#fff" />
    <path
        d="M317.4 713.6c-2.5-3.1-1.1-8.8 2-14s7.4-7 11-7 4.7 3.6.5 13.6c5.3-.9 7.7-.8 8.2 2.1s-3 5-10.9 6.3-9.4.7-10.8-1z"
        fill="#ed5f00" />
    <path d="M348.5 705.3c1.4-3.8 3-4.2 3.8-3.8s.6 2.2-.2 5.8-4.9 1.5-3.6-2z" fill="#ffc619" />
    <path d="M351.4 705.9c3.1-2.6 4.7-2.3 5.2-1.5s-.5 2.2-2.9 5-5.1-1.1-2.3-3.5z" fill="#ffc619" />
    <path
        d="M213 752.8c6.3.1 8.7-1 9.4-3.6s-3.5-8.1-12.1-8.7-14.4 3.4-15.7 8.6 1.5 4.1 7.4 3.8a82.076 82.076 0 0111-.1zM248.3 752.8c-5.2.1-7.1-1-7.7-3.6s2.8-8.1 9.8-8.7 11.8 3.4 12.8 8.6-1.3 4.1-6 3.8a53.762 53.762 0 00-8.9-.1z"
        fill="#fff" />
    <path
        d="M138.1 726h4.5a13.4 13.4 0 0113.4 13.4v28.9a13.4 13.4 0 01-13.4 13.4h-4.5a16.903 16.903 0 01-11.95-4.95 16.89 16.89 0 01-3.663-5.483 16.886 16.886 0 01-1.287-6.467v-21.9c0-2.219.437-4.417 1.287-6.467a16.89 16.89 0 019.146-9.147A16.903 16.903 0 01138.1 726z"
        fill="#bde9ff" />
    <path
        d="M137 726h12.9v42.8a12.888 12.888 0 01-3.778 9.122A12.895 12.895 0 01137 781.7a15.8 15.8 0 01-15.8-15.8v-24.1A15.8 15.8 0 01137 726z"
        fill="#fff" />
    <path
        d="M232.2 718.8c-7.3 0-9.8-2-15-8.9s-11.5-17.5-28.8-16.9c-11.1-15.7-6.4-34.4 4.7-43.6s33.4-9.2 41.4 5.2c4.3 7.6 6 15.9 3.1 30.7 9.4-2.7 13 3.7 11.6 11.7s-8 21.8-17 21.8z"
        fill="#fa80ba" />
    <path
        d="M135 743.2h-.1a3.7 3.7 0 00-3.7 3.7v14.03a3.7 3.7 0 003.7 3.7h.1a3.7 3.7 0 003.7-3.7V746.9a3.7 3.7 0 00-3.7-3.7z"
        fill="#ff78b9" />
    <path d="M252.1 744.7a8.1 8.1 0 015.2.9M208.4 744.8c2.496-.27 5.02.003 7.4.8" stroke="#000" stroke-linecap="round"
        stroke-miterlimit="10" stroke-width="3.204" />
    <path d="M221.8 729.9c-11.3-.3-17.4-.2-27.5 1.1M262.3 731.4c-6.8-1.6-11-1.8-18.6-1.8" stroke="#000"
        stroke-linecap="round" stroke-miterlimit="10" stroke-width="6.866" />
    <path d="M360.2 787.3c-22.1 3.7-77.3 7.9-145.6 3.4" stroke="#000" stroke-linecap="round" stroke-miterlimit="10"
        stroke-width="2.289" />
    <path
        d="M253 838.7c-6.2 8.5-14.9 16.4-31.1 19.7-24.2 4.8-36.8-18-38.6-36.9-.7-8.1-1-16.7 2.6-7.7 7 17 22.8 19.5 34.6 19.2s17.1.9 32.5 5.7z"
        fill="#039c78" />
    <path d="M125.1 852.9c7.2 3.7 16.1 4 16.1 4M121.2 780.8a46.607 46.607 0 00-8 19.8" stroke="#000"
        stroke-linecap="round" stroke-miterlimit="10" stroke-width="2.289" />
    <path
        d="M208.349 817.752c2.175-2.276.668-7.245-3.364-11.099-4.033-3.854-9.065-5.133-11.24-2.857s-.669 7.245 3.364 11.099c4.032 3.854 9.065 5.133 11.24 2.857z"
        fill="#03ab83" />
    <path d="M229.4 717.7c6.8-7.5 10.1-18.3 11.2-25.7M217.2 707.6c5.8-23.6 5.8-48.7-10.2-57.5" stroke="#eb459f"
        stroke-linecap="round" stroke-miterlimit="10" stroke-width="2.289" />
    <path
        d="M127.479 816.639c2.289-.371 3.659-3.677 3.058-7.384-.6-3.708-2.943-6.412-5.233-6.041-2.29.37-3.659 3.676-3.059 7.384.601 3.707 2.944 6.411 5.234 6.041z"
        fill="#57f287" />
    <path d="M203.2 790.7l5.1-6.8" stroke="#000" stroke-linecap="round" stroke-miterlimit="10" stroke-width="2.289" />
    <path
        d="M299.454 725.292c.947-.452 1.156-1.99.466-3.435-.689-1.446-2.016-2.252-2.963-1.8s-1.156 1.99-.466 3.435c.689 1.446 2.016 2.252 2.963 1.8zM320.6 710.2a.4.4 0 01-.4-.4 17.11 17.11 0 012.7-7.4c2.5-3.8 4.4-5.1 6.1-5.5s3.1 0 3.1 1.5a31.49 31.49 0 01-2.2 8.5 23.124 23.124 0 015.7-.5c1.1.1 1.1.6.3 1s-5 2-15.3 2.8z"
        fill="#000" />
    <path d="M312.1 770.4c1.1 9.7-7 21.7-7 21.7" stroke="#000" stroke-linecap="round" stroke-miterlimit="10"
        stroke-width="2.289" />
    <path
        d="M158.9 868.8l-.8-.6.8-.5c.9-.6 1.8-1.3 1.7-2.2s-1-1.5-1.9-1.9l-.9-.5c.222-.254.495-.458.8-.6.8-.7 1.6-1.4 1.5-2.3s-1.1-1.4-2.1-1.8l-.8-.4.6-.7c.8-.7 1.6-1.4 1.4-2.4s-1.2-1.3-2.1-1.7a2.395 2.395 0 01-.9-.3l.6-.7c.8-.7 1.5-1.5 1.3-2.4s-1.2-1.3-2.2-1.6a3.013 3.013 0 01-.8-.4l.6-.7c.7-.7 1.5-1.5 1.3-2.4s-1.3-1.2-2.2-1.6l-.9-.3.6-.7c.8-.7 1.5-1.5 1.3-2.4s-1.2-1.3-2.2-1.6l-.8-.4c.2-.2.4-.5.6-.6a3.109 3.109 0 001.4-2.4c-.2-.9-1.2-1.3-2.1-1.7l-.8-.4.7-.6c.7-.6 1.6-1.3 1.5-2.2s-1.1-1.4-2-1.9l-.7-.5.7-.5c.8-.5 1.7-1.1 1.7-2s-.8-1.5-1.6-2.1l-.7-.6.8-.3 1.1-.6a1.198 1.198 0 00.7-1.2 1.398 1.398 0 00-.8-1.2c-1.5-.7-1.5-2.3-1.2-8.6v-.3c.4-7-1.2-25.3-3.4-30.4a.902.902 0 00-.493-.506.894.894 0 00-.707.006 1.001 1.001 0 00-.5 1.2c1.9 4.4 3.7 22.2 3.3 29.6v.3c-.3 6-.4 8.5 1.4 9.9h-.1c-1 .4-2 .8-2.1 1.8s.7 1.6 1.6 2.2l.8.6-.8.6c-.9.6-1.8 1.2-1.8 2.1s1 1.5 2 2l.8.5-.7.6c-.8.7-1.7 1.4-1.5 2.3s1.1 1.4 2.1 1.8c.286.093.555.227.8.4a1.69 1.69 0 01-.6.6c-.8.8-1.6 1.5-1.4 2.4s1.2 1.3 2.2 1.7l.9.3a4.543 4.543 0 01-.7.7c-.7.8-1.5 1.5-1.2 2.4s1.2 1.3 2.1 1.6l.9.4-.6.7c-.7.7-1.5 1.5-1.3 2.4s1.2 1.2 2.2 1.6l.9.3-.7.7c-.7.7-1.4 1.5-1.2 2.4s1.1 1.3 2.1 1.7l.8.3-.6.7c-.8.7-1.5 1.4-1.4 2.3s1.1 1.3 2.1 1.7l.8.4-.7.6c-.8.7-1.6 1.4-1.5 2.3s1 1.4 1.9 1.9l.8.4-.7.5c-.9.6-1.8 1.2-1.7 2.1s.8 1.5 1.7 2.1l.7.5-.8.5c-.9.4-1.8.9-1.9 1.8s.7 1.6 1.5 2.3l.6.6-.8.3c-.9.4-1.9.7-2.2 1.6s.5 1.7 1.1 2.4l.6.7-.8.2c-1 .2-2.1.4-2.4 1.2a2.603 2.603 0 00.7 2.6l.4.8h-.8c-1.1.1-2.1.1-2.6.9s-.1 1.7.3 2.6l.3.9h-.9c-1-.1-2-.2-2.6.4s-.4 1.7-.1 2.7c.029.307.096.61.2.9l-.9-.2c-1-.2-2-.5-2.7.1s-.5 1.6-.4 2.6.1.7.1 1l-.8-.3c-1-.4-2-.8-2.8-.2a1.81 1.81 0 00-.5.7h5.9a5.667 5.667 0 00-.1-1.3c0-.3-.1-.7-.1-.9l1 .2c1 .2 2 .5 2.7-.2s.4-1.7.1-2.8a3.663 3.663 0 00-.2-.9h1c1.1.1 2.1.3 2.7-.5s.2-1.8-.2-2.8l-.4-.9h1c1.1-.1 2.1-.1 2.6-.9s-.1-1.8-.7-2.7l-.4-.9.9-.2c1-.2 2.1-.4 2.4-1.3s-.4-1.8-1.1-2.6l-.6-.7.9-.4c1-.3 2-.7 2.2-1.6s-.6-1.7-1.4-2.4l-.7-.6.8-.5c.9-.5 1.9-1 1.9-2s-.8-1.5-1.7-2.1z"
        fill="#fff" />
    <path d="M355.1 736.1l4.6 1.6" stroke="#000" stroke-linecap="round" stroke-miterlimit="10" stroke-width="2.289" />
    <path
        d="M73.2 853.9c-4.4-2.1-10-1-18.2 3.9a129.069 129.069 0 009.6 10c-1.3 9.5-4.4 14.8-7.4 21.2s.1 10.8 5.4 11.6 8.1-1.1 12.1-7.3a33.698 33.698 0 004.9-13.8c.435-2.913.636-5.855.6-8.8 0-9.1-2.3-14.5-7-16.8z"
        fill="#2ad17d" />
    <path
        d="M79.1 866.4c6.5-.8 10.9-1.4 13.9 2.7s3 8.7 1.3 17.1-5.8 17-12.2 16.4-8.8-4.3-6.5-13.6a188.26 188.26 0 003.5-22.6z"
        fill="#2ad17d" />
    <path
        d="M93 876.1c4.8-.1 10.6-.4 12.2 4.8s.2 12-3 17.4c-3.2 5.4-7.5 6.6-10.7 4.7s-3.3-3.5-.8-10.5 3.2-9.9 2.3-16.4z"
        fill="#2ad17d" />
    <path d="M123.8 888.9c-4.6-.3-13.3-.4-19.4-.7l-1.6 2.9a109.853 109.853 0 0027.5 6.2c2.5-4.8-.4-8-6.5-8.4z"
        fill="#2ad17d" />
    <path d="M75.2 892.4a47.1 47.1 0 005-26.1M95.4 876.8c-.1 8.7-1.6 15.7-5.8 21.5" stroke="#000" stroke-linecap="round"
        stroke-miterlimit="10" stroke-width="2.289" />
    <path d="M182.9 785.9c1.7-6 7.6-12.2 10.3-14M189.2 751l-4.5-2.6" stroke="#039c78" stroke-linecap="round"
        stroke-miterlimit="10" stroke-width="2.289" />
    <path
        d="M110.6 669.9a30.203 30.203 0 01-13.5-20.8l-2.2-14.6a1.4 1.4 0 00-1.4-1.2 1.4 1.4 0 00-1.5 1.2l-2.2 14.6a29.7 29.7 0 01-13.4 20.8l-1.9 1.2a1.7 1.7 0 00-.7 1.3 1.5 1.5 0 00.7 1.2l1.9 1.2a29.704 29.704 0 0113.4 20.8l2.2 14.6a1.4 1.4 0 001.5 1.2 1.396 1.396 0 001.4-1.2l2.2-14.6a30.194 30.194 0 0113.5-20.8l1.8-1.2a1.297 1.297 0 00.7-1.2 1.51 1.51 0 00-.7-1.3z"
        fill="#91ffad" />
    <path
        d="M1246.2 276.5a24.49 24.49 0 01-7.42-7.391 24.582 24.582 0 01-3.68-9.809l-1.8-12c-.05-.293-.19-.561-.41-.761s-.49-.32-.79-.339c-.3.019-.58.139-.79.339-.22.2-.37.468-.41.761l-1.8 12a25.02 25.02 0 01-11.1 17.2l-1.6 1c-.17.108-.31.255-.42.429-.1.174-.16.369-.18.571.02.202.08.397.18.571.11.174.25.32.42.429l1.6 1a25.182 25.182 0 017.39 7.467 25.08 25.08 0 013.71 9.833l1.8 12c.05.282.19.539.41.722s.5.282.79.278c.29.004.56-.095.78-.278s.37-.44.42-.722l1.8-12c.51-3.51 1.76-6.87 3.67-9.854a24.85 24.85 0 017.43-7.446l1.6-1c.16-.114.29-.264.37-.438.09-.174.13-.367.13-.562s-.04-.388-.13-.562a1.116 1.116 0 00-.37-.438z"
        fill="#66bcff" />
    <path
        d="M1334.3 933.2a44.104 44.104 0 01-13.2-13.164 44.041 44.041 0 01-6.6-17.436l-3.2-21.4a2.12 2.12 0 00-.71-1.295 2.11 2.11 0 00-1.39-.505 2.11 2.11 0 00-1.39.505 2.12 2.12 0 00-.71 1.295l-3.2 21.4a44.193 44.193 0 01-6.6 17.436 44.104 44.104 0 01-13.2 13.164l-2.8 1.8a2.102 2.102 0 00-.9 1.8v.2a2.102 2.102 0 00.9 1.8l2.8 1.8c5.29 3.39 9.8 7.875 13.22 13.153a44.045 44.045 0 016.58 17.447l3.2 21.3c.05.522.29 1.006.68 1.357.39.352.9.545 1.42.543.52.002 1.03-.191 1.42-.543.39-.351.63-.835.68-1.357l3.2-21.3a44.045 44.045 0 016.58-17.447 44.008 44.008 0 0113.22-13.153l2.8-1.8c.3-.196.55-.462.72-.776.18-.314.27-.665.28-1.024v-.2c-.01-.359-.1-.711-.28-1.024a2.16 2.16 0 00-.72-.776z"
        fill="#3442d9" />
    <path
        d="M659.5 824.4a13.502 13.502 0 01-6.1-9.3l-.9-6.6a.9.9 0 00-.7-.6.601.601 0 00-.6.6l-1 6.6a13.497 13.497 0 01-6.1 9.3l-.8.6a.498.498 0 00-.3.5.495.495 0 00.3.5l.8.6a13.498 13.498 0 016.1 9.3l1 6.6a.6.6 0 00.6.6.897.897 0 00.7-.6l.9-6.6a13.505 13.505 0 016.1-9.3l.8-.6a.502.502 0 00.3-.5.502.502 0 00-.3-.5zM713.2 125.5a8.206 8.206 0 01-3.7-5.8l-.6-4c0-.2-.2-.3-.4-.3s-.4.1-.4.3l-.6 4a8.206 8.206 0 01-3.7 5.8l-.5.3-.2.3c0 .1.1.2.2.3l.5.3a8.203 8.203 0 013.7 5.8l.6 4c0 .2.2.3.4.3s.4-.1.4-.3l.6-4a8.19 8.19 0 013.7-5.8l.5-.3c.1-.1.2-.2.2-.3l-.2-.3z"
        fill="#ff78b9" />
    <path
        d="M1305.2 580.6l30.6 80.5a14.719 14.719 0 006.35 7.484 14.714 14.714 0 009.65 1.816 14.792 14.792 0 0012.4-13l10.3-102.3z"
        fill="#4452f2" />
    <path
        d="M1297.4 608.3c53.74 0 97.3-43.563 97.3-97.3s-43.56-97.3-97.3-97.3-97.3 43.563-97.3 97.3 43.56 97.3 97.3 97.3z"
        fill="#ffe75c" />
    <path
        d="M1297.4 618.2c59.21 0 107.2-47.995 107.2-107.2s-47.99-107.2-107.2-107.2c-59.2 0-107.2 47.995-107.2 107.2s48 107.2 107.2 107.2z"
        stroke="#29cc7a" stroke-miterlimit="10" stroke-width="6.883" />
    <path
        d="M1375.7 589l-1.2-8.6a104.572 104.572 0 01-54.6 31.9h.4c.7.041 1.39.25 1.99.609.61.36 1.12.859 1.49 1.457s.6 1.276.65 1.978c.06.702-.06 1.407-.33 2.056a110.607 110.607 0 0051.6-29.4z"
        fill="#00a37c" />
    <path
        d="M1282 529.2a11.903 11.903 0 00-16.4 3.1c-.5.7-7.8 11.5-17.3 27.6.2-24.5.6-41.3 2.3-51.5.6-3.8 1.2-6.9 1.7-9.3.15-.806.11-1.635-.09-2.427a5.554 5.554 0 00-1.12-2.158 5.589 5.589 0 00-4.29-2.015 5.5 5.5 0 00-5.2 3.6c-3 8.1-5.1 16.5-5.5 23.6l-5.7 1.4a500.475 500.475 0 00-5.2 55.2 97.836 97.836 0 0028.8 21.8 562.38 562.38 0 0131.1-52.5 11.73 11.73 0 001.8-4.237c.32-1.518.34-3.082.05-4.605s-.88-2.975-1.72-4.271a11.836 11.836 0 00-3.23-3.287z"
        fill="#d11583" />
    <path
        d="M1392.6 430.2l-.7-1.1c-2.51-3.969-3.97-8.508-4.25-13.194s.63-9.367 2.65-13.606l4.7-9.7a28.379 28.379 0 002.76-11.073 28.31 28.31 0 00-1.8-11.269 28.385 28.385 0 00-6.08-9.659 28.457 28.457 0 00-9.38-6.499 28.507 28.507 0 00-13.25-2.205c-4.52.33-8.91 1.738-12.78 4.106-3.88 2.367-7.13 5.626-9.49 9.505s-3.76 8.265-4.08 12.794a28.689 28.689 0 01-14 22.7l-13.6 8a17.704 17.704 0 00-5.42 4.621 17.81 17.81 0 00-3.18 6.379 17.521 17.521 0 001.63 12.977 17.52 17.52 0 0010.17 8.223l54.5 16.9a18.81 18.81 0 0014.76-1.54 18.938 18.938 0 005.73-4.95 18.86 18.86 0 003.31-6.81c.66-2.454.8-5.017.42-7.529s-1.27-4.919-2.62-7.071z"
        fill="#eb459f" />
    <path
        d="M1373.9 459.6a6.491 6.491 0 00.4-7.1 42.403 42.403 0 00-25.26-19.862 42.41 42.41 0 00-31.94 3.562 6.571 6.571 0 00-2.49 2.538 6.633 6.633 0 00-.81 3.462 6.417 6.417 0 01-.64 2.723 6.385 6.385 0 01-1.76 2.177c-3.4 2.8-8.2 8.6-6.5 18.6l65.2 12.8c7.6-9.2 2.5-17.1 2.5-17.1z"
        fill="#252e99" />
    <path
        d="M1359.6 437.2c-.1.864-.1 1.736 0 2.6.6 6.3 3.9 11.1 7.4 10.8 1.6-.1 3-1.3 4-3.2a44.405 44.405 0 00-11.4-10.2zM1326.1 466.1c6.5-.6 11.4-6.1 10.8-12.4-.15-1.513-.6-2.982-1.32-4.321a11.483 11.483 0 00-6.88-5.581 11.505 11.505 0 00-4.5-.398c-6.5.5-11.4 6.1-10.8 12.3.14 1.522.58 3.002 1.29 4.352.72 1.351 1.7 2.545 2.88 3.513s2.54 1.691 4.01 2.127c1.46.435 3 .574 4.52.408zM1342.9 450.9c-3 5.6-2.2 11.8 1.7 13.9s9.6-.7 12.5-6.2 2.2-11.8-1.7-13.9-9.6.6-12.5 6.2zM1324.7 433a11.802 11.802 0 0010.5 4.5 12.008 12.008 0 009.4-5.9 42.112 42.112 0 00-19.9 1.4z"
        fill="#5865f2" />
    <path
        d="M1375.3 569.4c-.2-.5-.3-1-.5-1.4a77.212 77.212 0 01-.4-51.1l2.8-8a45.978 45.978 0 002.35-18.726 46.058 46.058 0 00-5.33-18.105 46.197 46.197 0 00-12.12-14.463 46.27 46.27 0 00-16.9-8.406 46.196 46.196 0 00-35.96 5.372c-5.32 3.281-9.92 7.607-13.52 12.717s-6.12 10.897-7.42 17.011l-3.5 16.7a158.65 158.65 0 01-22.3 53.8 62.613 62.613 0 00-10.1 34.8c0 2.678.2 5.352.6 8a96.127 96.127 0 0044.4 10.7 97.404 97.404 0 0077.9-38.9z"
        fill="#eb459f" />
    <path
        d="M1374.8 568a77.34 77.34 0 01-2.6-43.4l-5.2-1.9-11.2 1-4.8 2-10.1 9.1.9 35.8 21.6 11.9a99.399 99.399 0 009.4-10l2.4-3.3z"
        fill="#d11583" />
    <path d="M1358.4 561l-2.9-15.2c-5.1 26.5 3.7 40.3 3.7 40.3 2.5-2 7-6.3 7-6.3z" fill="#000" />
    <path
        d="M1370.9 574.7l-2.2.4c-33.6 5.9-25.1-45.9-17.7-49.4 0 0-1.9-2-37 17.2-13.9 7.5-29.1 4-34.4-2.8a14.287 14.287 0 01-2.4-13.7c-4 9.908-8.92 19.417-14.7 28.4a62.61 62.61 0 00-10.1 34.8c0 2.678.2 5.352.6 8a97.317 97.317 0 0062.91 8.912 97.317 97.317 0 0054.99-31.812z"
        fill="#8cd9ff" />
    <path
        d="M1290.7 606c-.4-2.7-2.7-4.9-5.1-4.9s-4 2.2-3.6 4.9l.3 1.2c2.8.4 5.5.7 8.3.9.18-.685.22-1.401.1-2.1zM1292.56 586.728c.58-2.756-.84-5.387-3.16-5.877-2.32-.489-4.68 1.348-5.26 4.104s.83 5.387 3.16 5.877c2.32.49 4.67-1.348 5.26-4.104zM1296.76 569.973c.58-2.756-.83-5.387-3.16-5.877-2.32-.49-4.67 1.347-5.26 4.104-.58 2.756.84 5.387 3.16 5.877 2.32.489 4.68-1.348 5.26-4.104z"
        fill="#66bcff" />
    <path
        d="M1337.4 447.8L1315 477c5.5 9.7 5.7 7.3 15.2-1.5 0 0 3.8 6 5.4 7.8s3 2.7 9.7-3.2 5-12.2 2.5-21.5c-.9-3.5-1.9-6.7-2.7-9.5a51.505 51.505 0 00-7.7-1.3z"
        fill="#000" />
    <path
        d="M1277.7 535.8h25.6c.09 0 .18.018.27.053.08.035.16.087.23.152.06.065.11.142.15.227a.81.81 0 01.05.268v12.1a13.596 13.596 0 01-18.8 12.565 13.719 13.719 0 01-4.42-2.949 13.558 13.558 0 01-2.94-4.412 13.48 13.48 0 01-1.04-5.204v-12a.67.67 0 01.21-.495.697.697 0 01.49-.205z"
        fill="#fff" />
    <path d="M1295.9 550.4h-10.8l-3.2 15.1a4.201 4.201 0 002.3 4.7 15.405 15.405 0 0012.6 0 4.202 4.202 0 002.4-4.7z"
        fill="#fff" />
    <path
        d="M1293.5 540.5a6.989 6.989 0 014.4-1.6c.94-.116 1.9-.03 2.8.251a6.685 6.685 0 014.13 3.647c.39.865.59 1.803.59 2.752a6.694 6.694 0 01-4.72 6.399c-.9.281-1.86.367-2.8.251a6.797 6.797 0 01-4.3-1.7"
        stroke="#66bcff" stroke-linecap="round" stroke-linejoin="round" stroke-width="3.581" />
    <path
        d="M1391.4 615.6c-2.3-18.7-9.8-59.9-14.3-82.4a11.807 11.807 0 00-5.06-7.514c-2.62-1.735-5.81-2.359-8.89-1.736s-5.78 2.443-7.51 5.059a11.829 11.829 0 00-1.74 8.891c3.9 19.5 10.1 53 13.1 73.2-12.3-15.2-30.8-42.1-30.8-42.1l-20 13.3c8.5 12.9 20.6 29 33.9 45.4 9.9 12.2 18.3 15.3 24.3 15.3 2.26.005 4.51-.437 6.6-1.3 4.9-2.1 8.4-6.4 9.9-12.2 1.1-3.9 1.2-8.4.5-13.9z"
        fill="#d11583" />
    <path
        d="M1336.2 569c-6.5-10.1-4.3-18.3-5.5-23.3s-4.8-4.1-13.2-4.1h-18.8a4.188 4.188 0 00-2.69.896 4.192 4.192 0 00-1.51 2.404 5.196 5.196 0 00.7 3.2 4.19 4.19 0 003.6 2.2h6.7c-5 2-4.4 5.5-3.1 8.2.26.544.41 1.136.42 1.739.02.603-.09 1.203-.32 1.761-1.2 3.3-.6 6.3 3.1 8.3s6.5 6 10 11.3c8.5 12.9 21.2 29.6 34.5 46L1367 611c-12.3-15.1-30.8-42-30.8-42z"
        fill="#d11583" />
    <path
        d="M1328.4 542.4c-12.2-8.2-15-11.5-20.1-.8s17.7 11 17.7 11zM1246 512.8c-8.5-1.9-18.9-2-26.7-1.5-.78.036-1.54.231-2.23.572-.7.342-1.32.822-1.83 1.412s-.89 1.277-1.12 2.02a5.75 5.75 0 00-.22 2.296c.22 1.653 1.03 3.171 2.28 4.274s2.85 1.716 4.52 1.726h19.6z"
        fill="#d11583" />
    <path d="M1228.7 541.5l11.1-20.5-20.2-.9s-.1 1-.2 3.3c-2.5 1.8-2.6 5.4-1.9 7.7 2 5.9 5.5 9.6 11.2 10.4z"
        fill="#d11583" />
    <path
        d="M1371.1 394.2c.6 3.1-1 4.1-3.5 2.3a23.486 23.486 0 00-19.3-3.7c-.27.079-.56.092-.84.038s-.55-.174-.77-.349A1.843 1.843 0 011346 391c0-5.7 2.6-10.5 7.3-12 6.7-2.1 14.3 3.9 17.1 12.4.28.921.51 1.855.7 2.8z"
        fill="#fff" />
    <path d="M1355 361a7.495 7.495 0 019.1.5c2.4 2.2.5 3.6-2.2 3.4a49.238 49.238 0 00-7.7 0c-2.1.3-1.4-2.3.8-3.9z"
        fill="#000" />
    <path
        d="M1312.6 507.2c-10.6-2.7-14.8-3.9-16.4-1.4s-.1 4.9 2.4 7.6c-2.7 5.8-2 8.4 3.2 8.4s10.8-3.2 10.8-3.2M1301.3 510.6a21.74 21.74 0 002.7 4.7"
        stroke="#000" stroke-linecap="round" stroke-linejoin="round" stroke-width="2.238" />
    <path
        d="M1344.5 467.1c.1-2.7-3-21.4-3-21.4l-7.4-.8a176.43 176.43 0 00-20.7 15c-3.6 3.1-3.3 5.2-3.8 11.4s-.6 9.8 1.7 9.8 6.8-3.4 15.3-8.8c1.6 3.3 2.9 5.3 4.1 6s2.9.2 8.5-3.7 5.3-4.8 5.3-7.5z"
        fill="#252e99" />
    <path
        d="M1344.2 470.1c.31-.968.41-1.99.3-3 0-1.5-.9-7.7-1.7-13.1-5.3-.6-10 1.5-10.9 5.2s3 8.9 9.1 10.4c1.05.257 2.12.424 3.2.5z"
        fill="#5865f2" />
    <path d="M1329.2 446.5c10.7-3.5 29.4-1.6 42.5 13.2M1341.9 448.4l-.5-3.3" stroke="#000" stroke-linecap="round"
        stroke-linejoin="round" stroke-width="2.238" />
    <path d="M1326 471.5c-1.3-3.6-3.3-6.3-1.7-8.5l12.4-17.3M1339.1 445.1c-1.1 5.2-3.5 13.8-3.5 13.8" stroke="#000"
        stroke-linecap="round" stroke-linejoin="round" stroke-width="2.238" />
    <path
        d="M1354.3 384c-2.4 0-4.1 3-4 6.7.01.539.08 1.075.2 1.6 2.76-.396 5.57-.294 8.3.3.09-.629.12-1.265.1-1.9-.2-3.7-2.2-6.7-4.6-6.7z"
        fill="#000" />
    <path
        d="M1367 611.1l1.7 3.6M1248.7 561.4l-.1 18.4M1220.1 512.4c10 .5 12.4 1.1 15.4 1.8a4.75 4.75 0 011.86.96c.53.455.96 1.025 1.25 1.669.29.643.43 1.343.41 2.048s-.2 1.396-.52 2.023c-1.3 2.8-7.8 3.2-17 2.7"
        stroke="#000" stroke-linecap="round" stroke-linejoin="round" stroke-width="2.238" />
    <path d="M1223 533.9c5.1-.2 11-.7 13.1-2.7s2-7.2-5.7-7.5" stroke="#000" stroke-linecap="round"
        stroke-linejoin="round" stroke-width="2.238" />
    <path d="M1238.3 541.8c-3.5.09-7.01-.043-10.5-.4-.3 3.1-.7 6.5-1 10.1 3.3-6.5 13-9.7 11.5-9.7z" fill="#000" />
    <path d="M1284.5 560h12.5" stroke="#8cd9ff" stroke-linecap="round" stroke-linejoin="round" stroke-width="2.238" />
    <path
        d="M1310.9 542.9c-1.6 1.1-2.2 3.5-.8 6.2.2.407.3.858.28 1.313-.01.454-.15.897-.38 1.287a6.218 6.218 0 00-.87 3.445 6.241 6.241 0 001.17 3.355 1.394 1.394 0 01.2 1.5c-1.1 2.5-.9 4.2.4 5.7"
        stroke="#000" stroke-linecap="round" stroke-linejoin="round" stroke-width="2.238" />
    <path d="M1344.5 398.2a88.89 88.89 0 0121.9 1.9" stroke="#ff66b0" stroke-linecap="round" stroke-miterlimit="10"
        stroke-width="2.238" />
    <path d="M1371.5 524.7c-5.4-3.8-15.8-2.4-33.3 5.2M1356.6 556.4l-3-15.6M1315 444.4a29.772 29.772 0 016.1-3.1"
        stroke="#000" stroke-linecap="round" stroke-linejoin="round" stroke-width="2.238" />
    <path
        d="M1312 463h-1.1c-1 2-1 4.3-1.3 8.2-.1 1.2-.2 2.2-.3 3.1.84.417 1.76.656 2.7.7.86.111 1.73.037 2.56-.217a6.09 6.09 0 004.32-5.833c0-.867-.18-1.724-.54-2.514s-.88-1.494-1.53-2.067a6.119 6.119 0 00-4.81-1.469z"
        fill="#5865f2" />
    <path
        d="M1098.5 797.6c-14.8-13.5-18.6-30.3-18.6-47.5l-41 33.3-9.8 41.2c14.7-3.5 29.6-5.7 45.2.7 1.8.7 3.5 1.5 5.1 2.3.75.395 1.39.971 1.86 1.675s.76 1.515.84 2.358c.08.844-.05 1.694-.39 2.474-.33.78-.85 1.465-1.51 1.993a96.424 96.424 0 00-7.9 6.9l19.7 2.2c11-5.5 21.7-12.7 23.2-20.7s-1.8-13.3-16.7-26.9z"
        fill="#ffc619" />
    <path
        d="M1098.5 797.6c-14.8-13.5-18.6-30.3-18.6-47.5l-41 33.3-9.8 41.2c14.7-3.5 29.6-5.7 45.2.7 1.8.7 3.5 1.5 5.1 2.3.75.395 1.39.971 1.86 1.675s.76 1.515.84 2.358c.08.844-.05 1.694-.39 2.474-.33.78-.85 1.465-1.51 1.993a96.424 96.424 0 00-7.9 6.9l19.7 2.2c11-5.5 21.7-12.7 23.2-20.7s-1.8-13.3-16.7-26.9z"
        fill="url(#b)" />
    <path
        d="M1129.3 819.4c-18.5-4.5-49.7 11.3-67.3 35.3s-12.3 42.3 9.5 41.1c19.1-1 44.5-16.9 59-35.6s15.4-36.8-1.2-40.8z"
        fill="url(#c)" />
    <path
        d="M1079.8 750.2c.3 7.7-1.5 17-5.2 26.5-8.9 22.9-26.7 42.1-42.5 47.2l7-1.4c14.3-7.7 29.1-25.1 36.9-45.3a73.825 73.825 0 004.5-15.9c-.4-3.72-.6-7.459-.6-11.2z"
        fill="#ff8c19" />
    <path
        d="M1067.44 790.811c15.34-25.834 16.68-53.359 3.01-61.48-13.68-8.121-37.2 6.239-52.54 32.072-15.34 25.834-16.69 53.359-3.01 61.48 13.68 8.12 37.2-6.239 52.54-32.072z"
        fill="#ffc619" />
    <path d="M1061 732.5c-15.2 0-36.6 21.2-46.6 46.3s-4.5 41.1 10.6 39 33.1-20.9 42.9-43 7.5-42.3-6.9-42.3z"
        fill="#ff8c19" />
    <path d="M1061 732.5c-15.2 0-36.6 21.2-46.6 46.3s-4.5 41.1 10.6 39 33.1-20.9 42.9-43 7.5-42.3-6.9-42.3z"
        fill="#ff8c19" />
    <path
        d="M1067.9 774.8a96.106 96.106 0 004.6-13.3 7.912 7.912 0 00-5.7-2.2c-10.2 0-24.6 14.3-31.4 31.2-4.3 10.9-4.2 19.6-.7 23.8 12.3-6.8 25.5-22.2 33.2-39.5z"
        fill="#000" />
    <path
        d="M1066.6 777.5a103.845 103.845 0 01-10.6 17.3c-6.8 2.5-8.4 8.9-12 16.1-4.5 9-12.2 17.6-25.8 23.4-23.4 10-41.5-.5-47.1-6.1s-2.9-12.5 7.1-13.4 22.6-1.2 31.3-14.1a40.548 40.548 0 003.4-6.2c8-19.1 20.7-19.3 27.8-14.9 9.3-5.9 18.5-6 25.9-2.1z"
        fill="url(#d)" />
    <path d="M1040.7 779.6c-10.9 7.4-12.9 21.1-20.5 30.1s-14.7 10.3-14.7 10.3" stroke="#000" stroke-linecap="round"
        stroke-miterlimit="10" stroke-width="1.703" />
    <path
        d="M1071 737.7l-1.5 3c-1.9 3.5-4.6 3.7-9.6 3.7s-4.3-2.8 1.7-11.9c1.87.036 3.71.529 5.34 1.435a11.54 11.54 0 014.06 3.765zM1060.6 732.5c-5.4 8.8-7.1 11.9-11.5 11.9s-8.5.2-4.3-5.2c.36-.414.69-.848 1-1.3 5.2-3.3 10.2-5.3 14.8-5.4z"
        fill="#fff" />
    <path d="M1115.5 820.5c0 5.2-.7 9-6.6 13.1" stroke="#000" stroke-linecap="round" stroke-miterlimit="10"
        stroke-width="1.703" />
    <path
        d="M1127.1 825.3c-10.5 0-30.5 13.5-44.6 30.2s-17.1 30.3-6.6 30.3 35.2-15.3 48.7-32.7c12.3-15.9 13-27.8 2.5-27.8z"
        fill="#5865f2" />
    <path d="M1096.6 850.1l7.6 20.1M1104.9 842.9l7.6 20.1M1113.2 835.7l7.6 20" stroke="#ffc619" stroke-linecap="round"
        stroke-miterlimit="10" stroke-width="5.643" />
    <path
        d="M1130.9 838.2c-2-5.1-7.8-5.7-12.9-1.2l-20.6 17.9c-5.2 4.5-7.8 12.4-5.9 17.5s7.8 5.6 12.9 1.1l20.7-17.9c5.1-4.5 7.7-12.3 5.8-17.4z"
        stroke="#ff8c19" stroke-linecap="round" stroke-miterlimit="10" stroke-width="3.762" />
    <path
        d="M1124.4 854.1a68.38 68.38 0 005.9-6.1 17.878 17.878 0 003.7-6.9c1.2-5-.6-10.5-2.6-15.8-1-2.6-2.1-5.3-3.2-7.9l-1.7-4c-.6-1.4-1.2-2.8-1.7-4.2a54.866 54.866 0 01-2.5-8.8 57.076 57.076 0 01-1.3-9.2c-.06-.992.28-1.966.93-2.714a3.826 3.826 0 012.57-1.286 3.809 3.809 0 014 3.5c.1.2 0 .5 0 .6-.47 5.485.08 11.01 1.6 16.3.34 1.328.78 2.632 1.3 3.9l1.4 4.1c1 2.8 2 5.5 2.9 8.3.93 2.88 1.67 5.82 2.2 8.8.69 3.118.59 6.358-.28 9.43s-2.5 5.879-4.72 8.17a75.801 75.801 0 01-6.4 6.3c-.16.142-.35.25-.56.317-.2.067-.42.092-.63.073a1.58 1.58 0 01-1.11-.59c-.26-.322-.38-.73-.34-1.14s.23-.789.54-1.06z"
        fill="#ff8c19" />
    <path
        d="M1129.43 785.828c1.22 1.219 1.9 2.872 1.9 4.596s-.68 3.377-1.9 4.596l-1.28 1.273c-.88.881-2.07 1.377-3.32 1.377s-2.44-.496-3.32-1.377l-1.28-1.273c-1.21-1.219-1.9-2.872-1.9-4.596s.69-3.377 1.9-4.596c1.22-1.219 2.88-1.904 4.6-1.904s3.38.685 4.6 1.904z"
        fill="#fff" />
    <path
        d="M1127.5 792.473a3.89 3.89 0 00-.02-5.502 3.889 3.889 0 00-5.5-.014 3.89 3.89 0 00.02 5.502 3.889 3.889 0 005.5.014z"
        stroke="#000" stroke-linecap="round" stroke-miterlimit="10" stroke-width="1.703" />
    <path
        d="M1013 745.4l-14.1-7.9a6.104 6.104 0 01-3.1-5.3v-1a6.1 6.1 0 016.1-6.2c1.32-.015 2.6.395 3.66 1.17a6.08 6.08 0 012.24 3.13z"
        fill="#4ab0ff" />
    <path d="M994.9 783.3l-9.1 6.7a4.402 4.402 0 01-4.301.5l-.599-.3a4.4 4.4 0 01-2.301-5.7 4.407 4.407 0 014.4-2.5z"
        fill="#66bcff" />
    <path
        d="M407.2 61.7a20.5 20.5 0 00-17 8.9 43.102 43.102 0 00-17.6-3.8 42.602 42.602 0 00-27.9 10.3h82.5a20.8 20.8 0 00-20-15.4z"
        fill="#6874f7" />
    <path
        d="M1389.2 100.3c-.1.2-.3.3-.4.2-3.1-2.2-4.5-1.8-5.3-.7-.8 1.1-.8 2.9-.5 5.5.04.25-.01.506-.14.724-.12.219-.32.387-.56.476-.2.1-.5.1-.6-.1-2.1-2.1-3.2-3.1-4.7-3.4s-4.3.5-6.1 3.5l-6-6.5a20.103 20.103 0 007.5-11.6c.8-3.7 1.9-3.4 6-.1a55.14 55.14 0 0110.8 11.6c.05.055.08.126.08.2s-.03.145-.08.2zM1335.7 110.6c.1.029.21.036.31.018.11-.017.2-.057.29-.118 2-2.6 3.5-2.8 4.6-2.3s1.7 1.9 2.2 3.7c.07.184.19.342.35.45s.36.161.55.15c.2-.1.5-.2.6-.5.9-1.9 1.5-2.8 2.6-3.5a4.603 4.603 0 015.1.5l2.7-5.6a15.331 15.331 0 01-8-7.1c-1.9-3.2-2.7-2.7-5.4 1.2a37.88 37.88 0 00-6 12.6c-.04.082-.06.177-.04.268s.07.173.14.232z"
        fill="#808aff" />
    <path d="M1361 122.9c6.85 0 12.4-5.552 12.4-12.4s-5.55-12.4-12.4-12.4-12.4 5.552-12.4 12.4 5.55 12.4 12.4 12.4z"
        fill="#808aff" />
    <path
        d="M1396.7 53.3c-.1.2-.26.365-.46.472-.19.107-.42.152-.64.128-9.2-2.6-12.4-1-13.7 1.7s.2 5.9 2.6 10.3a1.804 1.804 0 01-.8 2.4c-.24.15-.52.231-.8.231s-.56-.08-.8-.231c-5.7-2.6-8.7-3.8-12.2-3.7a9.381 9.381 0 00-5.95 2.261 9.35 9.35 0 00-3.15 5.539l-15.8-7.7c5-8.4 4.6-17 2.5-25.2s.3-9 13-4.8a136.479 136.479 0 0135.8 17.6c.16.111.28.264.35.441s.09.371.05.559z"
        fill="#3442d9" />
    <path d="M1357.3 57.1c1.6 6.1 3.1 17.3 3.1 17.3" stroke="#000" stroke-linecap="round" stroke-linejoin="round"
        stroke-width="1.233" />
    <path
        d="M1282.2 90a1.106 1.106 0 001.2-.2c4.2-6 7.4-6.6 10-5.5s3.9 3.8 5.2 7.8a1.8 1.8 0 001.9 1.2c.28-.044.55-.158.78-.333.23-.175.41-.404.52-.667 2-4.4 3.2-6.5 5.5-8.1s7-2.3 11.2.5l5.3-12.6c-8.9-2.9-14.4-8.6-18.5-14.9s-6.1-5.5-11.6 3.3a85.809 85.809 0 00-11.9 28.6c-.03.173 0 .35.07.51s.18.295.33.39z"
        fill="#3442d9" />
    <path d="M1306.9 69.6a49.368 49.368 0 008.9 12.7" stroke="#000" stroke-linecap="round" stroke-linejoin="round"
        stroke-width="1.233" />
    <path
        d="M1317.6 80.3c5.8-2.2 12.9 1.9 15.8 9.1s.6 14.9-5.2 17.2l16.8-1.1c14.2-5.5 21-13.2 15.5-27.3-4.1-10.4-13.5-13.8-26.3-8.8s-16.6 10.9-16.6 10.9z"
        fill="#000" />
    <path d="M1328.8 76.7c5.2 6.7 8.3 10.6 9.7 11.6s1.4.2.6-3.4-3.3-16.3-3.3-16.3z" fill="#fff" />
    <path d="M1320.3 84.6c3.8 4.9 6.1 7.8 7.1 8.5s1 .1.5-2.6-2.5-11.9-2.5-11.9z" fill="#808aff" />
    <path d="M1345.6 103.3c-.5-6.2-.8-9.8-.5-11s.7-.8 2 1.5l6.3 10.4z" fill="#fff" />
    <path
        d="M1321.6 104.2a7.709 7.709 0 014.7-4.8c3-1 6.6-1.6 14.2.1 2.59.678 5.32.503 7.8-.5 7.4-2.8 12.1-11.5 10.5-19.4s-8.9-11.9-16.3-9a16.496 16.496 0 00-8.4 7.5c-5 9.3-6.9 11.8-11.3 13.8a8.114 8.114 0 01-6.3.3c-4.8-1.8-7.1-7.9-4.1-15.4a27.402 27.402 0 0144.88-8.973 27.301 27.301 0 016.8 11.546 27.37 27.37 0 01-5.38 25.429 27.413 27.413 0 01-10.9 7.798 27.9 27.9 0 01-20.9-.4c-5.5-2.4-6.1-5.5-5.3-8z"
        fill="url(#e)" />
    <path
        d="M1353.9 67.8a14.807 14.807 0 00-12.7-.6c-4.3 1.6-7.7 4.8-10.3 9.3s-8.1 13.4-13 13.6a7.196 7.196 0 01-6.1-2.7c0 .1.1.2.1.3a6.6 6.6 0 005.7 4h.4c4.4-.2 8.8-4.6 14.2-14.3a18.713 18.713 0 019.6-8.7 13.298 13.298 0 0111.4.5 14.08 14.08 0 017 10c1.9 9.1-3.4 19.2-11.8 22.5a15.507 15.507 0 01-8.9.5c-8.2-1.6-13.6-1.2-16.6 1.4l-.4.4a3.6 3.6 0 00-.6 4.3c.07-.692.28-1.362.62-1.965.35-.604.82-1.127 1.38-1.535 2.5-2.3 7.7-2.6 15.3-1.1 3.25.825 6.68.615 9.8-.6 9-3.5 14.7-14.4 12.7-24.2-.37-2.32-1.27-4.526-2.62-6.449s-3.12-3.513-5.18-4.651z"
        fill="#eb459f" />
    <path
        d="M1369.5 43.6c15.8 5.2 26.1 9.4 26.1 9.4M1383.3 67.3c-5.2-5.4-12.3-12.3-18.1-18M1299.9 91.9c-1.3-8.8-.7-22.4-.7-22.4M1282.6 89.4c3.01-7.247 6.73-14.18 11.1-20.7"
        stroke="#000" stroke-linecap="round" stroke-linejoin="round" stroke-width="1.233" />
    <path
        d="M1273.9 133.3h-.4c-1.7-2.2-2.8-2.3-3.7-1.6a7.326 7.326 0 00-1.5 3.8c-.1.4-.4.8-.8.8-.2 0-.3-.1-.4-.3-1-1.9-1.6-2.8-2.7-3.4s-3.2-.6-5.2 1.2l-2.9-6a14.51 14.51 0 007.9-6.9c1.4-2.4 2.1-2 4.4 1.3a37.3 37.3 0 015.3 10.8c.02.019.04.042.05.068.01.025.02.053.02.082 0 .028-.01.056-.02.082s-.03.049-.05.068zM1232.8 129.1c.1.1.3.2.4.1 2.1-1.5 3.2-1.3 3.9-.6a4.7 4.7 0 01.7 3.1c0 .143.05.282.14.392s.22.184.36.208c.11.016.22.006.32-.029.11-.034.2-.093.28-.171a5.707 5.707 0 012.7-2 3.312 3.312 0 011.99.194c.62.269 1.15.725 1.51 1.306l3.2-3.5a11.375 11.375 0 01-4.2-6.9c-.7-2.7-1.4-2.5-4.2-.3a27.36 27.36 0 00-7.1 7.9.197.197 0 00-.05.068.225.225 0 00-.02.082c0 .028.01.056.02.082s.03.049.05.068z"
        fill="#3442d9" />
    <path d="M1251.2 144c5.19 0 9.4-4.209 9.4-9.4 0-5.192-4.21-9.4-9.4-9.4s-9.4 4.208-9.4 9.4c0 5.191 4.21 9.4 9.4 9.4z"
        fill="#3442d9" />
    <path
        d="M575.1 880.6a24.117 24.117 0 003.1 2.5c4.3 2.8 5.4 5.9 3.5 8.4s-7.2 2.3-11.6-1-6.3-8.2-4.3-11 5.5-2.5 9.3 1.1z"
        fill="#ffc069" />
    <path
        d="M612.1 924.7c9.9-6 8.9-13.5-2.2-16.7l-20.4-5.8c-11.1-3.2-28.2-.9-38.1 5l-57 34.5c-9.9 6-8.9 13.5 2.2 16.6l20.4 5.9c11.1 3.2 28.2.9 38.1-5.1z"
        fill="#3442d9" />
    <path
        d="M611.2 912.9c9.8-6 8.8-13.5-2.3-16.7l-20.4-5.8c-11.1-3.2-28.2-.9-38.1 5l-57 34.5c-9.9 6-8.9 13.5 2.2 16.7l20.4 5.8c11.1 3.2 28.2.9 38.1-5z"
        fill="#5865f2" />
    <path
        d="M614.9 910.1a29.775 29.775 0 01-3.7 2.8l-1.2.7-41.9-12.1-18.8-5.4 1.1-.7c9.9-5.9 27.1-8.2 38.1-5l20.4 5.9c9.5 2.7 11.6 8.5 6 13.8z"
        fill="#eb459f" />
    <path d="M555.3 946.7l54.7-33.1-60.7-17.5-54.8 33.1z" fill="#3442d9" />
    <path d="M552.3 921.4L538.2 877" stroke="#000" stroke-linecap="round" stroke-miterlimit="10" stroke-width="2.096" />
    <path d="M546.7 915.3c6.462 0 11.7-5.238 11.7-11.7s-5.238-11.7-11.7-11.7-11.7 5.238-11.7 11.7 5.238 11.7 11.7 11.7z"
        fill="#29cc7a" />
    <path d="M544.4 896.5l-6.2-19.5" stroke="#000" stroke-linecap="round" stroke-miterlimit="10" stroke-width="2.096" />
    <path d="M538.2 881.1a4.1 4.1 0 100-8.2 4.1 4.1 0 000 8.2z" fill="#eb459f" />
    <path
        d="M599.99 905.309c4.321-.607 7.611-2.607 7.35-4.466-.261-1.86-3.976-2.875-8.296-2.268-4.321.608-7.611 2.607-7.35 4.467.261 1.859 3.976 2.874 8.296 2.267z"
        fill="#000" />
    <path
        d="M873.8 111.9c.4-6-3.3-11.5-10.1-11s-10.3 2.8-17.9 6.6a22.303 22.303 0 01-13.2 2.1c-20.9-3-26.3-2.6-30.6-1s-5.7 4-4.3 8.9 4.3 7.8 11.3 10 22.5 7.7 31.5 11.9 19.4 5.4 26.9 9.2 27.2 17.5 34.3 23.3 9.5 4.5 10.3 3.7.7-1.5.3-8a32.096 32.096 0 00-6.2-17c-3.9-5.5-12.3-13.5-16.9-20.5s-6.9-17.2-15.4-18.2z"
        fill="#ff8c19" />
    <path
        d="M889.2 130.1c-4.6-7-6.9-17.2-15.4-18.2-12.8-.3-23.5 5.7-31.3 6.9-5.6.8-18.8 1-24.2 1.1s-6.4.7-7.2 1.4-1.1 2-.1 2.5l-.4 2.1 7.9 2.8 34.8 12.4 18.7 8.8 22.1 14.2 15.6 11.5 2.5-.2c.6-.8.5-1.9.1-7.8a32.088 32.088 0 00-6.2-17c-3.9-5.5-12.3-13.5-16.9-20.5z"
        fill="url(#f)" />
    <path
        d="M912 175.6c.4-.4.6-.8.6-2.1-.3 3.1-3.6.1-6.1-2.2s-9-11.2-20.5-16c-21.1-9-25.3-18.6-47.9-21.3-10.7-1.2-21.3-7.9-24.6-9.2s-4.2-1.5-4.1-3a15.296 15.296 0 00-2-9.3c-2.4-3.8-6.7-4.8-9.4-.8a7.491 7.491 0 00-.3 5.8c1.3 4.9 4.3 7.8 11.3 10s22.5 7.7 31.5 11.9 19.4 5.4 26.9 9.2 27.2 17.5 34.3 23.3 9.5 4.5 10.3 3.7z"
        fill="#ed5f00" />
    <path
        d="M912 175.6c.4-.4.6-.8.6-2.1-.3 3.1-3.6.1-6.1-2.2a91.764 91.764 0 00-7.5-7.7c2.2 2.2 2.8 5.6 2.9 8.4 7 5.7 9.3 4.4 10.1 3.6z"
        fill="#000" />
    <path
        d="M916.3 182.2c-1.2-3.6-1.1-6.7-.8-10.7s-1.3-10.8-8.7-19.9l-3.4 16.3c6 6.9 8.9 12.9 8.9 16.7s.6 10 4.1 9.2 1.1-8-.1-11.6z"
        fill="#ffc619" />
    <path
        d="M821.8 125.5a34.505 34.505 0 008.1 3.8 77.043 77.043 0 0011.2 2.7c.3 0 .4-.1.4-.3-.5-4.2-6.1-7.5-10.2-8.1s-8.4.1-9.7 1.4 0 .4.2.5z"
        fill="#ff78b9" />
    <path
        d="M875.701 124.5c-.3 2.9-5.1 4.9-10.8 4.4s-10.1-3.3-9.9-6.3 3.6-4.8 8-2.8a20.291 20.291 0 006 1.5c4.4.4 6.9.9 6.7 3.2zM883.901 143.6a39.393 39.393 0 004.6 2.3c2.7 1 3.6 1.8 2.7 3s-4.8 1.5-8.5-.3-5.601-4.5-4.601-6.1 2.901-.7 5.801 1.1zM906.5 149.1a7.6 7.6 0 00-4.6-2.9c-2.8-.6-4.1.8-4 2.7s2.5 5.2 7.3 8.7 6.1-1 5.2-3-2.6-3.8-3.9-5.5z"
        fill="#eb459f" />
    <path
        d="M875.6 81.9a39.898 39.898 0 00-14.4 1.9c-3.5 1.2-.6 5.2 8.6 7.5s19.3 1.8 23 1.8 3.3.2 5.6 2.7 4.1 4.4 4.2 2.3c.1-2.1-.4-4 1.2-5.8s2.2-2.8 2.2-4.4-.6-1.3-2.5-.2a57.11 57.11 0 01-5.7 3c-.9.3-1-.4-3.4-2.2a32.598 32.598 0 00-18.8-6.6z"
        fill="#66bcff" />
    <path d="M856.7 86.2l4.4-1.1-3.1-2.7" stroke="#66bcff" stroke-linecap="round" stroke-linejoin="round"
        stroke-width="2.439" />
    <path
        d="M867.75 85.045c.552-.005.997-.279.993-.61-.003-.331-.453-.595-1.006-.59-.552.006-.997.28-.993.61.003.332.454.596 1.006.59z"
        fill="#000" />
    <path d="M805.4 114.9c-1.4-2.1-3.6-2.8-4.8-1.7s-1.2 3.7.2 5.7 3.5 2.8 4.8 1.7 1.1-3.7-.2-5.7z" fill="#ff8c19" />
    <path d="M902.9 160.2c4.6 3.1 6.7 5.5 7.9 10.4" stroke="#ffe75c" stroke-linecap="round" stroke-miterlimit="10"
        stroke-width="1.742" />
    <path d="M899 92.5l2.4-.3" stroke="#000" stroke-linecap="round" stroke-miterlimit="10" stroke-width="1.742" />
    <path
        d="M830.6 154.9a37.705 37.705 0 00-12.6 3.7c-2.9 1.6.2 4.8 8.8 5.6s17.4-1.2 20.8-1.6 3-.4 5.4 1.6 4.3 3.4 4.1 1.5-.9-3.6.2-5.4 1.6-2.8 1.4-4.3-.7-1.1-2.3.2a30.225 30.225 0 01-4.7 3.5c-.8.4-.9-.3-3.3-1.4a29.606 29.606 0 00-17.8-3.4z"
        fill="#3442d9" />
    <path d="M474.7 154.3l-15.7 1.5a7.711 7.711 0 00-3.5 1.2c-5.6 3.4-6.7 5.7-6.7 5.7l9.3 9 18.5-14.6z"
        fill="#ffe75c" />
    <path d="M419.6 157.7l2.3-2.6s12.1-1.1 16.7-1.2 14.6 4.2 20 13.3c5.7-9.2 13.5-12.4 16.1-12.9l1.9 2.8L457 174z"
        fill="#ffc619" />
    <path
        d="M436.6 172.4a30.157 30.157 0 00-1.2 4c-.3 1.3.6 1.3 7.2 1.3h15.5c1.9.1 2.7-.8 1.7-4.4 5.7-6.5 15.7-13 19.4-15.3a.494.494 0 00.266-.508.505.505 0 00-.066-.192l-.9-1.1a.607.607 0 00-.6 0c-7.6 5-13.9 9.5-19.8 15.4-8-9.2-14.4-12.8-19.7-15.2a1.509 1.509 0 00-.9-.2l-20 1a1.1 1.1 0 00-1.1 1.1.894.894 0 00.15.55.891.891 0 00.45.35c13.1 5.7 19.6 13.2 19.6 13.2z"
        fill="#66bcff" />
    <path
        d="M436.6 172.4a30.157 30.157 0 00-1.2 4c-.3 1.3.6 1.3 7.2 1.3h13c-1.7-.1-2-.5.1-4.7-2.6-3.9-8.6-9.6-17.6-14.5l-21.1.7c13.1 5.7 19.6 13.2 19.6 13.2z"
        fill="#8cd9ff" />
    <path d="M458.4 169.2l-.3 2.5" stroke="#000" stroke-linecap="round" stroke-miterlimit="10" stroke-width="1.521" />
    <path
        d="M375.7 137.6l-.6-1c-.1-.1-.4-.2-.5-.1l-1.2.7-1.5-2.5-13.3.3a8.393 8.393 0 00-3 .8 28.323 28.323 0 00-3.3 2c-3.8-3.6-8.2-5.4-10.8-5.5s-14.2 0-14.2 0l-1.7 1.7h-2.2a1 1 0 00-.9.9.7.7 0 00.4.8 53.888 53.888 0 0110.9 7.2l1.6 1.4.7.8a16.55 16.55 0 012.6 2.8s-.9 2.2-1.2 3.3c0 .2-.1.3-.1.4a.495.495 0 00.4.5 7.505 7.505 0 002.4.4l3.4.2h10.8l2.2.2c1.6.1 2.3-.5 1.7-3.7 5.2-5.1 14-10 17.3-11.8.2.6.3.4.1.2z"
        fill="#3442d9" />
    <path d="M413.299 107.7l-22.7 2.2c-1.76.174-3.446.793-4.9 1.8-7.6 4.9-8.9 8.4-8.9 8.4l15.3 13.1 24.6-21.4z"
        fill="#ffe75c" />
    <path d="M333.199 112.9l2.9-3.8s17.5-1.7 24.2-1.8 22.1 6 31.8 19.3c6.6-13.5 17.5-18.2 21.2-18.9l3.4 4.1-25.8 24.8z"
        fill="#ffc619" />
    <path
        d="M360.699 134.3s-.9 4-1.1 5.9 1.1 2 10.9 1.9h22.7c2.8.1 3.8-1.2 1.7-6.5 7.3-9.4 20.7-19 25.8-22.4a.69.69 0 00.21-.5.7.7 0 00-.21-.5l-1.4-1.6a.795.795 0 00-.9-.1c-10.2 7.4-18.7 14-26.3 22.7-13.4-13.4-23.4-18.7-31.6-22.2a3.004 3.004 0 00-1.3-.2l-29.2 1.6a1.406 1.406 0 00-1.068.478 1.393 1.393 0 00-.288.525 1.385 1.385 0 00-.044.597 1.404 1.404 0 001 1.3c20.3 8.1 31.1 19 31.1 19z"
        fill="#eb459f" />
    <path
        d="M360.7 134.3s-.9 4-1.1 5.9 1.1 2 10.9 1.9h19c-2.4-.1-3-.8-.7-6.8-4.4-5.7-14.3-14-28.4-21.1l-30.8 1.1c20.3 8.1 31.1 19 31.1 19z"
        fill="#ff78b9" />
    <path d="M391.999 129l.2 1.9" stroke="#000" stroke-linecap="round" stroke-miterlimit="10" stroke-width="1.521" />
</svg>