<svg xmlns="http://www.w3.org/2000/svg" width="1440" height="900" preserveAspectRatio="none"><g mask="url(&quot;#SvgjsMask1132&quot;)" fill="none"><path fill="rgba(88, 101, 242, 1)" d="M0 0h1440v900H0z"/><path d="M0 542.621c103.318 2.559 199.327-41.633 289.412-92.287 94.717-53.258 200.424-107.212 243.106-207.141 42.44-99.362 8.863-212.664-19.238-316.992-25.461-94.527-72.131-178.953-134.64-254.294-63.639-76.703-135.156-148.329-228.465-183.355-97.411-36.566-207.041-51.104-305.349-17.024-96.486 33.448-175.252 110.349-223.493 200.355-43.569 81.289-18.453 177.899-28.384 269.592-9.493 87.648-50.583 172.125-28.71 257.53 23.938 93.469 79.654 177.473 155.419 237.216C-200.234 499.39-101.987 540.095 0 542.621" fill="#4752C4"/><path d="M1440 1202.779c79.905 19.17 158.24 93.377 233.719 60.895 73.13-31.471 75.74-134.837 107.622-207.789 31.288-71.594 81.802-138.104 77.638-216.125-4.314-80.832-35.366-167.748-100.675-215.572-63.437-46.453-151.352-18.6-229.602-26.28-61.652-6.051-122.183-31.815-181.536-14.072-59.223 17.704-95.279 72.754-143.623 111.273-61.201 48.763-153.645 70.997-178.332 145.253-24.736 74.405 8.785 160.802 55.695 223.631 43.554 58.334 119.912 76.275 187.817 102.52 55.56 21.473 113.356 22.37 171.277 36.266" fill="#7983F5"/></g><defs><mask id="prefix__SvgjsMask1132"><path fill="#fff" d="M0 0h1440v900H0z"/></mask></defs></svg>