<svg xmlns="http://www.w3.org/2000/svg" xmlns:xlink="http://www.w3.org/1999/xlink" viewBox="0,0,256,256" width="32px" height="32px" fill-rule="nonzero"><g fill="#000000" fill-rule="nonzero" stroke="none" stroke-width="1" stroke-linecap="butt" stroke-linejoin="miter" stroke-miterlimit="10" stroke-dasharray="" stroke-dashoffset="0" font-family="none" font-weight="none" font-size="none" text-anchor="none" style="mix-blend-mode: normal"><g transform="scale(8,8)"><path d="M10,6v2h4v-2zM14,8v2h4v-2zM18,8h4v-2h-4zM22,8v2h3v-2zM25,10v5h2v-5zM27,15v8h-2v2h2h2v-10zM25,25h-6v2h6zM19,25v-2h-6v2zM13,25h-6v2h6zM7,25v-2h-2v-8h-2v10h2zM5,15h2v-5h-2zM7,10h3v-2h-3zM13,23v-2h-4v2zM19,23h4v-2h-4zM11,14v4h3v-4zM18,14v4h3v-4z"></path></g></g></svg>