<?xml version="1.0" encoding="UTF-8"?>
<svg version="1.1" id="Layer_1" xmlns="http://www.w3.org/2000/svg" xmlns:xlink="http://www.w3.org/1999/xlink" x="0px" y="0px" viewBox="0 0 130 36" style="enable-background:new 0 0 130 36;" xml:space="preserve">
    <!-- Generator: Adobe Illustrator 19.0.0, SVG Export Plug-In . SVG Version: 6.00 Build 0)  -->
    <style type="text/css">.st0{fill:#fff}</style>
    <path class="st0" d="M27.525 8.062A26.876 26.876 0 0020.82 6a19.06 19.06 0 00-.859 1.746 25.134 25.134 0 00-7.429 0A18.516 18.516 0 0011.664 6a26.783 26.783 0 00-6.709 2.068C.713 14.344-.437 20.465.138 26.499c2.814 2.058 5.54 3.307 8.222 4.125a19.952 19.952 0 001.76-2.84 17.466 17.466 0 01-2.772-1.32c.232-.17.46-.346.68-.527 5.346 2.448 11.155 2.448 16.438 0 .222.181.45.358.68.526-.88.52-1.81.964-2.779 1.324a19.856 19.856 0 001.761 2.84c2.684-.818 5.413-2.068 8.227-4.128.675-6.995-1.153-13.06-4.83-18.437zM10.849 22.788c-1.605 0-2.921-1.467-2.921-3.253 0-1.787 1.288-3.256 2.92-3.256 1.634 0 2.95 1.467 2.922 3.256.003 1.786-1.288 3.253-2.921 3.253zm10.795 0c-1.605 0-2.921-1.467-2.921-3.253 0-1.787 1.288-3.256 2.921-3.256 1.633 0 2.95 1.467 2.921 3.256 0 1.786-1.288 3.253-2.921 3.253zM43.664 12.282h6.977c1.681 0 3.102.264 4.268.787 1.163.524 2.034 1.255 2.612 2.19.577.936.868 2.007.868 3.213 0 1.18-.301 2.252-.904 3.21-.603.961-1.52 1.72-2.755 2.28-1.235.56-2.763.84-4.59.84h-6.476v-12.52zm6.404 9.339c1.132 0 2.004-.284 2.612-.849.608-.567.912-1.339.912-2.318 0-.907-.27-1.63-.812-2.172-.542-.542-1.362-.815-2.459-.815H48.14v6.154h1.93zM68.835 24.787a9.463 9.463 0 01-2.612-1.091v-2.97c.585.453 1.37.826 2.354 1.12.983.291 1.934.437 2.854.437.43 0 .754-.057.974-.17.22-.111.33-.247.33-.403a.605.605 0 00-.18-.447c-.12-.12-.352-.22-.697-.304l-2.147-.483c-1.23-.287-2.1-.683-2.62-1.191-.518-.506-.776-1.17-.776-1.994 0-.692.225-1.293.68-1.806.452-.514 1.096-.91 1.932-1.189.835-.281 1.812-.421 2.934-.421 1.001 0 1.919.107 2.755.322.835.214 1.525.488 2.075.822v2.81a7.701 7.701 0 00-1.942-.798 8.694 8.694 0 00-2.265-.294c-1.122 0-1.681.192-1.681.572 0 .18.087.312.26.401.174.09.494.182.956.28l1.79.321c1.167.202 2.039.557 2.611 1.063.573.506.858 1.255.858 2.247 0 1.086-.472 1.947-1.42 2.586-.949.639-2.293.958-4.036.958a11.974 11.974 0 01-2.987-.378zM81.5 24.411c-1.024-.5-1.798-1.18-2.315-2.039-.516-.859-.777-1.825-.777-2.898 0-1.073.269-2.035.806-2.88.536-.846 1.323-1.51 2.361-1.994 1.037-.483 2.277-.723 3.721-.723 1.789 0 3.274.376 4.455 1.127v3.274a5.58 5.58 0 00-1.457-.698 5.763 5.763 0 00-1.781-.268c-1.11 0-1.976.202-2.602.608-.626.406-.94.935-.94 1.592 0 .644.303 1.17.912 1.585.608.411 1.49.618 2.648.618a6.2 6.2 0 001.763-.258 6.567 6.567 0 001.492-.636v3.166c-1.31.787-2.831 1.18-4.561 1.18-1.457-.004-2.7-.255-3.724-.756zM94.213 24.412c-1.033-.501-1.82-1.186-2.361-2.058a5.411 5.411 0 01-.816-2.916c0-1.073.271-2.031.816-2.872.544-.841 1.326-1.5 2.353-1.978 1.025-.478 2.25-.716 3.668-.716 1.418 0 2.642.238 3.667.716s1.807 1.132 2.344 1.967c.536.836.805 1.795.805 2.88 0 1.074-.269 2.045-.805 2.917-.537.871-1.321 1.556-2.354 2.057-1.033.501-2.252.752-3.66.752-1.408 0-2.627-.248-3.657-.75zm5.436-3.174c.434-.435.654-1.01.654-1.726 0-.715-.217-1.285-.654-1.707-.435-.424-1.028-.636-1.779-.636-.764 0-1.362.212-1.8.636-.433.424-.65.992-.65 1.707 0 .716.216 1.291.65 1.726.436.434 1.036.654 1.8.654.751-.003 1.344-.22 1.78-.654zM115.438 14.536v3.865c-.455-.3-1.043-.448-1.772-.448-.952 0-1.689.29-2.2.867-.513.577-.769 1.477-.769 2.693v3.292h-4.383V14.34h4.294v3.327c.237-1.216.623-2.113 1.155-2.694.529-.577 1.214-.866 2.047-.866.631 0 1.173.143 1.628.43zM130 11.925v12.88h-4.383v-2.343c-.37.881-.933 1.553-1.689 2.013-.757.458-1.692.688-2.802.688-.991 0-1.855-.24-2.593-.723-.739-.483-1.309-1.145-1.71-1.986-.399-.84-.601-1.792-.601-2.855-.012-1.096.2-2.08.636-2.952a4.924 4.924 0 011.843-2.04c.793-.487 1.697-.732 2.712-.732 2.088 0 3.488.907 4.204 2.719v-4.67H130zm-5.037 9.24c.447-.434.669-.998.669-1.688 0-.668-.217-1.212-.651-1.628-.435-.417-1.031-.627-1.779-.627-.739 0-1.329.213-1.771.637-.442.424-.662.973-.662 1.653s.22 1.235.662 1.664c.442.43 1.025.644 1.753.644.738-.003 1.331-.22 1.779-.654zM62.082 15.454c1.207 0 2.186-.879 2.186-1.963s-.979-1.963-2.186-1.963c-1.206 0-2.185.88-2.185 1.963 0 1.084.979 1.963 2.185 1.963zM59.895 16.806c1.34.578 3 .603 4.37 0v8.055h-4.37v-8.055z"/>
    </svg>